<svg id="Capa_1" enable-background="new 0 0 512 512" height="512" viewBox="0 0 512 512" width="512" xmlns="http://www.w3.org/2000/svg"><g id="XMLID_2679_"><path id="XMLID_986_" d="m482 220.5v187.5c0 22.091-17.909 40-40 40h-372c-22.091 0-40-17.909-40-40v-187.5z" fill="#f1c6dd"/><path id="XMLID_985_" d="m446 232h-380c-30.928 0-56-25.072-56-56v-102h492v102c0 30.928-25.072 56-56 56z" fill="#ff9eb1"/><path id="XMLID_1580_" d="m153.667 190h-80v53.5c0 22.091 17.909 40 40 40 22.091 0 40-17.909 40-40z" fill="#fff"/><path id="XMLID_1003_" d="m358.333 190h80v53.5c0 22.091-17.909 40-40 40-22.091 0-40-17.909-40-40z" fill="#fff"/><g id="XMLID_1634_"><circle id="XMLID_1639_" cx="256" cy="390" fill="#fff2a0" r="112"/><g id="XMLID_1670_" fill="#ff5d7d"><path id="XMLID_1682_" d="m502 64h-140v-54c0-5.523-4.478-10-10-10h-192c-5.522 0-10 4.477-10 10v54h-140c-5.522 0-10 4.477-10 10v102c0 18.517 7.676 35.267 20 47.264v184.736c0 27.57 22.43 50 50 50h84.756c21.932 32.549 59.129 54 101.244 54s79.312-21.451 101.244-54h84.756c27.57 0 50-22.43 50-50v-184.736c12.324-11.998 20-28.747 20-47.264v-102c0-5.523-4.478-10-10-10zm-332-44h172v44h-172zm86 472c-56.243 0-102-45.757-102-102s45.757-102 102-102 102 45.757 102 102-45.757 102-102 102zm216-84c0 16.542-13.458 30-30 30h-73.847c6.333-14.74 9.847-30.967 9.847-48 0-67.271-54.729-122-122-122s-122 54.729-122 122c0 17.033 3.514 33.26 9.847 48h-73.847c-16.542 0-30-13.458-30-30v-171.346c7.307 3.144 15.291 4.994 23.667 5.287 0 27.57 22.43 51.559 50 51.559s50-23.989 50-51.559h184.666c0 27.57 22.43 51.559 50 51.559s50-23.989 50-51.559c8.376-.293 16.36-2.143 23.667-5.287zm-388.333-164.5v-43.5h60v43.5c0 16.542-13.458 30-30 30s-30-13.458-30-30zm284.666 0v-43.5h60v43.5c0 16.542-13.458 30-30 30s-30-13.458-30-30zm123.667-67.5c0 24.582-19.382 44.722-43.667 45.941v-31.941c0-5.523-4.478-10-10-10h-80c-5.522 0-10 4.477-10 10v32h-184.666v-32c0-5.523-4.478-10-10-10h-80c-5.522 0-10 4.477-10 10v31.941c-24.285-1.219-43.667-21.359-43.667-45.941v-92h472z"/><path id="XMLID_1705_" d="m120.74 243.82c1.859-1.86 2.93-4.44 2.93-7.07s-1.07-5.21-2.93-7.07c-1.87-1.86-4.44-2.93-7.07-2.93-2.64 0-5.21 1.07-7.07 2.93-1.87 1.86-2.93 4.44-2.93 7.07s1.06 5.21 2.93 7.07c1.86 1.86 4.431 2.93 7.07 2.93 2.63 0 5.2-1.07 7.07-2.93z"/><path id="XMLID_1713_" d="m408.33 236.75c0-2.63-1.061-5.21-2.931-7.07-1.859-1.86-4.43-2.93-7.069-2.93-2.63 0-5.21 1.07-7.07 2.93s-2.93 4.44-2.93 7.07 1.069 5.21 2.93 7.07 4.44 2.93 7.07 2.93 5.21-1.07 7.069-2.93c1.871-1.86 2.931-4.44 2.931-7.07z"/><path id="XMLID_1716_" d="m270.921 379.927c-1.621-.573-3.269-1.167-4.921-1.776v-32.778c3.747 1.434 6.153 3.133 6.302 3.24 4.4 3.285 10.632 2.408 13.952-1.975 3.335-4.402 2.471-10.674-1.932-14.009-.474-.359-7.649-5.685-18.322-8.093v-6.536c0-5.523-4.478-10-10-10s-10 4.477-10 10v6.478c-.934.214-1.874.45-2.824.735-12.088 3.632-21.119 13.948-23.569 26.922-2.249 11.907 1.608 23.424 10.064 30.057 4.187 3.284 9.342 6.285 16.329 9.428v43.704c-5.207-.581-8.893-2.136-14.838-6.025-4.621-3.024-10.819-1.729-13.843 2.894-3.023 4.622-1.729 10.819 2.894 13.843 10.079 6.594 17.085 8.743 25.787 9.369v6.595c0 5.523 4.478 10 10 10s10-4.477 10-10v-7.781c16.686-4.461 27.378-18.807 29.758-32.961 3.138-18.665-6.612-34.889-24.837-41.331zm-28.906-13.471c-2.519-1.975-3.6-6.14-2.756-10.61.678-3.59 2.792-7.798 6.741-10.18v23.497c-1.462-.88-2.806-1.782-3.985-2.707zm34.02 51.486c-.935 5.559-4.342 11.396-10.035 14.783v-33.247c10.998 4.811 10.716 14.413 10.035 18.464z"/></g></g><path id="XMLID_987_" d="m192 131h128v44h-128z" fill="#fff"/></g></svg>